# 3ds Max Wavefront OBJ Exporter v0.97b - (c)2007 guruware
# File Created: 05.06.2018 00:31:43

#
# object Plane004
#

v  -29.5458 -15.5711 -0.0000
v  -29.5458 -23.2618 -0.0000
v  -22.1593 -23.2618 -0.0000
v  -21.0587 -18.2111 -0.0000
v  -14.7729 -15.5711 -0.0000
v  -10.2352 -25.4228 -0.0000
v  -3.6898 -26.3724 -0.0000
v  -7.3797 -21.7922 -0.0000
v  22.5063 -22.0708 -0.0000
v  18.6396 -26.5117 -0.0000
v  29.5458 -23.2618 -0.0000
v  29.5458 -15.5711 -0.0000
v  -14.7729 -0.1896 -0.0000
v  -14.7729 -7.8803 -0.0000
v  -10.0433 -10.0483 -0.0000
v  -7.3732 1.6957 0.0000
v  10.6681 -3.0003 -0.0000
v  18.3766 -12.5355 -0.0000
v  29.5458 -7.8803 -0.0000
v  29.5458 -0.1896 -0.0000
v  0.0000 30.5734 0.0000
v  -14.7729 30.5734 0.0000
v  1.6474 -0.6523 -0.0000
v  7.3864 30.5734 0.0000
v  29.5458 30.5734 0.0000
v  14.7729 30.5734 0.0000
v  -29.5458 -7.8803 -0.0000
v  -29.5458 -0.1896 -0.0000
v  -29.5458 -30.9526 -0.0000
v  -22.1593 -30.9526 -0.0000
v  -14.7729 -30.9526 -0.0000
v  0.0000 -30.9526 -0.0000
v  14.7729 -30.9526 -0.0000
v  29.5458 -30.9526 -0.0000
v  -29.5458 30.5734 0.0000
# 35 vertices

vn -0.0000 -0.0000 1.0000
vn 0.0000 -0.0000 1.0000
# 2 vertex normals

vt 0.0200 0.2600 0.0000
vt 0.0200 0.1400 0.0000
vt 0.1353 0.1400 0.0000
vt 0.1524 0.2188 0.0000
vt 0.2505 0.2600 0.0000
vt 0.3213 0.1063 0.0000
vt 0.4234 0.0915 0.0000
vt 0.3659 0.1629 0.0000
vt 0.8322 0.1586 0.0000
vt 0.7718 0.0893 0.0000
vt 0.9420 0.1400 0.0000
vt 0.9420 0.2600 0.0000
vt 0.2505 0.5000 0.0000
vt 0.2505 0.3800 0.0000
vt 0.3243 0.3462 0.0000
vt 0.3660 0.5294 0.0000
vt 0.6474 0.4561 0.0000
vt 0.7677 0.3074 0.0000
vt 0.9420 0.3800 0.0000
vt 0.9420 0.5000 0.0000
vt 0.4810 0.9800 0.0000
vt 0.2505 0.9800 0.0000
vt 0.5067 0.4928 0.0000
vt 0.5963 0.9800 0.0000
vt 0.9420 0.9800 0.0000
vt 0.7115 0.9800 0.0000
vt 0.0200 0.3800 0.0000
vt 0.0200 0.5000 0.0000
vt 0.0200 0.0200 0.0000
vt 0.1353 0.0200 0.0000
vt 0.2505 0.0200 0.0000
vt 0.4810 0.0200 0.0000
vt 0.7115 0.0200 0.0000
vt 0.9420 0.0200 0.0000
vt 0.0200 0.9800 0.0000
# 35 texture coords

o Plane004
g Plane004
s 1
f 1/1/1 2/2/2 3/3/2 4/4/1 
f 5/5/1 6/6/1 7/7/1 8/8/1 
f 9/9/2 10/10/2 11/11/2 12/12/2 
f 13/13/2 14/14/1 15/15/1 16/16/2 
f 17/17/1 18/18/2 19/19/2 20/20/2 
f 13/13/2 16/16/2 21/21/2 22/22/2 
f 16/16/2 23/23/1 24/24/2 21/21/2 
f 17/17/1 20/20/2 25/25/2 26/26/2 
f 27/27/2 14/14/1 13/13/2 28/28/2 
f 14/14/1 5/5/1 8/8/1 15/15/1 
f 18/18/2 9/9/2 12/12/2 19/19/2 
f 23/23/1 17/17/1 26/26/2 24/24/2 
f 2/2/2 29/29/2 30/30/2 3/3/2 
f 6/6/1 31/31/2 32/32/2 7/7/1 
f 10/10/2 33/33/2 34/34/2 11/11/2 
f 13/13/2 22/22/2 35/35/2 28/28/2 
f 27/27/2 1/1/1 4/4/1 5/5/1 14/14/1 
# 17 polygons

