# 3ds Max Wavefront OBJ Exporter v0.97b - (c)2007 guruware
# File Created: 05.06.2018 00:31:13

#
# object Plane002
#

v  -38.5741 -13.2088 -0.0000
v  -30.1329 -27.5559 -0.0000
v  15.3241 -23.3568 -0.0000
v  15.3241 -15.5712 -0.0000
v  -44.0807 0.0000 -0.0000
v  -42.6747 -8.8259 -0.0000
v  15.3241 -7.7856 -0.0000
v  15.3241 -0.0000 0.0000
v  -31.8706 10.8605 0.0000
v  -40.7649 3.3614 0.0000
v  15.3241 2.2511 0.0000
v  15.3241 15.5712 0.0000
v  -34.8848 31.1424 0.0000
v  -27.4045 25.1064 0.0000
v  15.3241 25.1064 0.0000
v  15.3241 31.1424 0.0000
v  -26.3675 -31.1424 -0.0000
v  15.3241 -31.1424 -0.0000
# 18 vertices

vn -0.0000 -0.0000 1.0000
vn 0.0000 -0.0000 1.0000
# 2 vertex normals

vt 0.0714 0.3713 0.0000
vt 0.1613 0.1561 0.0000
vt 0.8004 0.1281 0.0000
vt 0.8151 0.2362 0.0000
vt 0.0200 0.5651 0.0000
vt 0.0228 0.4399 0.0000
vt 0.8299 0.3443 0.0000
vt 0.8447 0.4523 0.0000
vt 0.2101 0.6927 0.0000
vt 0.0724 0.6055 0.0000
vt 0.8490 0.4836 0.0000
vt 0.8743 0.6685 0.0000
vt 0.2068 0.9800 0.0000
vt 0.2992 0.8820 0.0000
vt 0.8924 0.8009 0.0000
vt 0.9038 0.8847 0.0000
vt 0.2068 0.0991 0.0000
vt 0.7856 0.0200 0.0000
# 18 texture coords

o Plane002
g Plane002
s 1
f 1/1/1 2/2/1 3/3/1 4/4/1 
f 5/5/1 6/6/1 7/7/1 8/8/1 
f 9/9/2 10/10/2 11/11/2 12/12/2 
f 13/13/2 14/14/2 15/15/2 16/16/2 
f 14/14/2 9/9/2 12/12/2 15/15/2 
f 10/10/2 5/5/1 8/8/1 11/11/2 
f 2/2/1 17/17/1 18/18/1 3/3/1 
f 6/6/1 1/1/1 4/4/1 7/7/1 
# 8 polygons

